<svg xmlns="http://www.w3.org/2000/svg" width="100" height="40" viewBox="0 0 100 40">
  <g fill="#FFF" fill-rule="evenodd">
    <path d="M21.5241379,6.34255884 L21.5241379,3.6060567 L25.1913793,3.6060567 L25.1913793,14.7579569 L29.6405172,14.7579569 L29.6405172,0.0455661781 L17.3456897,0.0455661781 L17.3456897,5.63628308 C17.3456897,10.1384746 16.8948276,11.2860672 14.3698276,11.1092874 L14.3698276,14.5229535 C14.8806034,14.7579569 15.6318966,14.8756695 16.3237069,14.8756695 C19.450431,14.8756695 21.5241379,12.9926894 21.5241379,6.34255884"/>
    <polygon points="12.536 11.198 4.45 11.198 4.45 9.079 10.552 9.079 10.552 5.636 4.45 5.636 4.45 3.606 12.475 3.606 12.475 .046 0 .046 0 14.758 12.536 14.758"/>
    <path d="M37.6073276,11.2569555 L37.6073276,7.90235662 L40.2823276,7.90235662 C41.6056034,7.90235662 42.3271552,8.31413986 42.3271552,9.57944512 C42.3271552,10.8447504 41.6353448,11.2569555 40.2823276,11.2569555 L37.6073276,11.2569555 Z M46.8663793,9.57944512 C46.8663793,5.60717136 44.0103448,4.40093336 40.9439655,4.40093336 L37.6073276,4.40093336 L37.6073276,0.0455661781 L33.1581897,0.0455661781 L33.1581897,14.7579569 L40.9439655,14.7579569 C44.0103448,14.7579569 46.8663793,13.4044726 46.8663793,9.57944512 L46.8663793,9.57944512 Z"/>
    <polygon points="60.303 18.142 64.662 18.142 64.662 11.198 62.619 11.198 62.619 .046 58.169 .046 58.169 11.198 53.479 11.198 53.479 .046 49.031 .046 49.031 14.758 60.303 14.758"/>
    <polygon points="95.175 .046 95.175 5.46 89.823 5.46 89.823 .046 85.374 .046 85.374 14.758 89.823 14.758 89.823 9.02 95.175 9.02 95.175 14.758 99.624 14.758 99.624 .046"/>
    <polygon points="72.058 8.226 71.456 8.226 71.456 .046 67.007 .046 67.007 14.758 71.937 14.758 76.807 6.578 77.408 6.578 77.408 14.758 81.857 14.758 81.857 .046 76.927 .046"/>
    <g transform="translate(0 21.544)">
      <polygon points="9.189 .046 9.189 11.198 4.474 11.198 4.474 .046 0 .046 0 14.758 11.335 14.758 11.335 18.142 15.718 18.142 15.718 11.198 13.662 11.198 13.662 .046"/>
      <path d="M71.3628415,7.96100198 L69.2166949,7.96100198 L69.2166949,3.54741134 L71.3628415,3.54741134 C73.4786508,3.54741134 74.2643867,4.10644084 74.2643867,5.75441762 C74.2643867,7.37243885 73.4786508,7.96100198 71.3628415,7.96100198 M71.8465046,0.0459880871 L64.7436782,0.0459880871 L64.7436782,14.7579569 L69.2166949,14.7579569 L69.2166949,11.4333135 L71.8465046,11.4333135 C76.0174487,11.4333135 78.8890899,9.57944512 78.8890899,5.75441762 C78.8890899,1.57583032 75.9875448,0.0459880871 71.8465046,0.0459880871"/>
      <polygon points="49.268 3.606 53.953 3.606 53.953 14.758 58.426 14.758 58.426 3.606 63.112 3.606 63.112 .046 49.268 .046"/>
      <polygon points="43.162 5.46 37.782 5.46 37.782 .046 33.309 .046 33.309 14.758 37.782 14.758 37.782 9.02 43.162 9.02 43.162 14.758 47.636 14.758 47.636 .046 43.162 .046"/>
      <polygon points="22.548 9.079 28.443 9.079 28.443 5.636 22.548 5.636 22.548 3.606 30.196 3.606 30.196 .046 18.075 .046 18.075 14.758 30.286 14.758 30.286 11.198 22.548 11.198"/>
    </g>
  </g>
</svg>