<svg width="734" height="608" viewBox="0 0 734 608" fill="none" xmlns="http://www.w3.org/2000/svg">
<rect width="734" height="608" fill="#1976D2" fill-opacity="0.1"/>
<path d="M551.5 156.049C569.113 161.324 587.469 164.034 606 164.034L606 533C511.213 533 417.982 508.927 335.066 463.043C252.151 417.158 182.274 350.969 132 270.694L445.11 75C454.271 89.6272 465.349 102.877 478 114.422" stroke="black" stroke-width="3"/>
<rect x="216.137" y="223" width="45" height="45" transform="rotate(57.9382 216.137 223)" fill="#D2D706"/>
<rect x="270.137" y="190" width="45" height="45" transform="rotate(57.9382 270.137 190)" fill="#D2D706"/>
<rect x="332.137" y="152" width="45" height="45" transform="rotate(57.9382 332.137 152)" fill="#819411"/>
<rect x="394.137" y="114" width="45" height="45" transform="rotate(57.9382 394.137 114)" fill="#11943D"/>
<rect x="554" y="213.169" width="45" height="260.599" transform="rotate(-0.215243 554 213.169)" fill="#A5170E"/>
<rect x="296.408" y="377.763" width="45" height="115.713" transform="rotate(136.376 296.408 377.763)" fill="#B97B03"/>
<rect x="407.124" y="441.466" width="45" height="115.713" transform="rotate(118.642 407.124 441.466)" fill="#CA6910"/>
<rect x="530.327" y="474.228" width="45" height="115.713" transform="rotate(104.631 530.327 474.228)" fill="#D23A19"/>
<path d="M383.391 304.809H381.363V303.367H383.309C384.168 303.367 384.863 303.246 385.395 303.004C385.926 302.762 386.312 302.426 386.555 301.996C386.797 301.566 386.918 301.07 386.918 300.508C386.918 299.969 386.785 299.477 386.52 299.031C386.254 298.578 385.844 298.219 385.289 297.953C384.734 297.68 384.02 297.543 383.145 297.543C382.488 297.543 381.895 297.668 381.363 297.918C380.832 298.16 380.41 298.5 380.098 298.938C379.785 299.367 379.629 299.863 379.629 300.426H377.367C377.367 299.699 377.52 299.047 377.824 298.469C378.129 297.883 378.547 297.387 379.078 296.98C379.609 296.566 380.223 296.25 380.918 296.031C381.621 295.812 382.363 295.703 383.145 295.703C384.059 295.703 384.887 295.809 385.629 296.02C386.371 296.223 387.008 296.527 387.539 296.934C388.07 297.34 388.477 297.844 388.758 298.445C389.039 299.047 389.18 299.746 389.18 300.543C389.18 301.129 389.043 301.68 388.77 302.195C388.496 302.711 388.105 303.164 387.598 303.555C387.09 303.945 386.48 304.254 385.77 304.48C385.059 304.699 384.266 304.809 383.391 304.809ZM381.363 303.812H383.391C384.352 303.812 385.207 303.91 385.957 304.105C386.707 304.301 387.34 304.586 387.855 304.961C388.371 305.336 388.762 305.801 389.027 306.355C389.301 306.902 389.438 307.531 389.438 308.242C389.438 309.039 389.281 309.746 388.969 310.363C388.664 310.98 388.23 311.504 387.668 311.934C387.105 312.363 386.438 312.688 385.664 312.906C384.898 313.125 384.059 313.234 383.145 313.234C382.41 313.234 381.684 313.141 380.965 312.953C380.254 312.758 379.609 312.461 379.031 312.062C378.453 311.656 377.988 311.141 377.637 310.516C377.293 309.891 377.121 309.141 377.121 308.266H379.383C379.383 308.836 379.539 309.359 379.852 309.836C380.172 310.312 380.613 310.695 381.176 310.984C381.738 311.266 382.395 311.406 383.145 311.406C384.004 311.406 384.73 311.273 385.324 311.008C385.926 310.734 386.383 310.363 386.695 309.895C387.016 309.418 387.176 308.883 387.176 308.289C387.176 307.766 387.09 307.312 386.918 306.93C386.754 306.539 386.508 306.219 386.18 305.969C385.859 305.719 385.457 305.535 384.973 305.418C384.496 305.293 383.941 305.23 383.309 305.23H381.363V303.812ZM399.562 310.832V304.305C399.562 303.805 399.461 303.371 399.258 303.004C399.062 302.629 398.766 302.34 398.367 302.137C397.969 301.934 397.477 301.832 396.891 301.832C396.344 301.832 395.863 301.926 395.449 302.113C395.043 302.301 394.723 302.547 394.488 302.852C394.262 303.156 394.148 303.484 394.148 303.836H391.98C391.98 303.383 392.098 302.934 392.332 302.488C392.566 302.043 392.902 301.641 393.34 301.281C393.785 300.914 394.316 300.625 394.934 300.414C395.559 300.195 396.254 300.086 397.02 300.086C397.941 300.086 398.754 300.242 399.457 300.555C400.168 300.867 400.723 301.34 401.121 301.973C401.527 302.598 401.73 303.383 401.73 304.328V310.234C401.73 310.656 401.766 311.105 401.836 311.582C401.914 312.059 402.027 312.469 402.176 312.812V313H399.914C399.805 312.75 399.719 312.418 399.656 312.004C399.594 311.582 399.562 311.191 399.562 310.832ZM399.938 305.312L399.961 306.836H397.77C397.152 306.836 396.602 306.887 396.117 306.988C395.633 307.082 395.227 307.227 394.898 307.422C394.57 307.617 394.32 307.863 394.148 308.16C393.977 308.449 393.891 308.789 393.891 309.18C393.891 309.578 393.98 309.941 394.16 310.27C394.34 310.598 394.609 310.859 394.969 311.055C395.336 311.242 395.785 311.336 396.316 311.336C396.98 311.336 397.566 311.195 398.074 310.914C398.582 310.633 398.984 310.289 399.281 309.883C399.586 309.477 399.75 309.082 399.773 308.699L400.699 309.742C400.645 310.07 400.496 310.434 400.254 310.832C400.012 311.23 399.688 311.613 399.281 311.98C398.883 312.34 398.406 312.641 397.852 312.883C397.305 313.117 396.688 313.234 396 313.234C395.141 313.234 394.387 313.066 393.738 312.73C393.098 312.395 392.598 311.945 392.238 311.383C391.887 310.812 391.711 310.176 391.711 309.473C391.711 308.793 391.844 308.195 392.109 307.68C392.375 307.156 392.758 306.723 393.258 306.379C393.758 306.027 394.359 305.762 395.062 305.582C395.766 305.402 396.551 305.312 397.418 305.312H399.938ZM413.613 300.32V302.113H407.484V300.32H413.613ZM415.523 300.32V313H413.355V300.32H415.523ZM406.957 300.32H409.137L408.809 306.438C408.754 307.383 408.664 308.219 408.539 308.945C408.422 309.664 408.258 310.281 408.047 310.797C407.844 311.312 407.586 311.734 407.273 312.062C406.969 312.383 406.602 312.621 406.172 312.777C405.742 312.926 405.246 313 404.684 313H404.004V311.09L404.473 311.055C404.809 311.031 405.094 310.953 405.328 310.82C405.57 310.688 405.773 310.492 405.938 310.234C406.102 309.969 406.234 309.629 406.336 309.215C406.445 308.801 406.527 308.309 406.582 307.738C406.645 307.168 406.691 306.504 406.723 305.746L406.957 300.32ZM431.859 295.844V313H429.691V298.551L425.32 300.145V298.188L431.52 295.844H431.859Z" fill="black"/>
</svg>
