<svg width="650" height="608" viewBox="0 0 650 608" fill="none" xmlns="http://www.w3.org/2000/svg">
<rect width="650" height="608" fill="#1976D2" fill-opacity="0.1"/>
<path d="M249.883 101.831C257.692 85.1857 263.074 67.4282 265.8 49.0986L630.751 103.38C616.806 197.136 579.278 285.811 521.695 361.074C464.112 436.336 388.362 495.716 301.565 533.632L154.064 195.139C169.88 188.23 184.615 179.222 197.896 168.407" stroke="black" stroke-width="3"/>
<rect x="266.768" y="443.395" width="45" height="45" transform="rotate(-23.6019 266.768 443.395)" fill="#D2D706"/>
<rect x="517.83" y="139.079" width="45" height="45" transform="rotate(-81.0301 517.83 139.079)" fill="#CA6910"/>
<rect x="242.071" y="385.128" width="45" height="45" transform="rotate(-23.6019 242.071 385.128)" fill="#819411"/>
<rect x="455.432" y="128.522" width="45" height="45" transform="rotate(-81.0301 455.432 128.522)" fill="#D2D706"/>
<rect x="213.605" y="318.212" width="45" height="45" transform="rotate(-23.6019 213.605 318.212)" fill="#819411"/>
<rect x="383.716" y="116.486" width="45" height="45" transform="rotate(-81.0301 383.716 116.486)" fill="#819411"/>
<rect x="185.141" y="251.296" width="45" height="45" transform="rotate(-23.6019 185.141 251.296)" fill="#11943D"/>
<rect x="312" y="104.45" width="45" height="45" transform="rotate(-81.0301 312 104.45)" fill="#11943D"/>
<rect x="304" y="228.306" width="45" height="114.304" transform="rotate(-66.6212 304 228.306)" fill="#D23A19"/>
<rect x="488.554" y="328" width="45" height="206.799" transform="rotate(48.7811 488.554 328)" fill="#A5170E"/>
<rect x="564.052" y="150" width="45" height="181.169" transform="rotate(23.0906 564.052 150)" fill="#A5170E"/>
<path d="M345.391 317.809H343.363V316.367H345.309C346.168 316.367 346.863 316.246 347.395 316.004C347.926 315.762 348.312 315.426 348.555 314.996C348.797 314.566 348.918 314.07 348.918 313.508C348.918 312.969 348.785 312.477 348.52 312.031C348.254 311.578 347.844 311.219 347.289 310.953C346.734 310.68 346.02 310.543 345.145 310.543C344.488 310.543 343.895 310.668 343.363 310.918C342.832 311.16 342.41 311.5 342.098 311.938C341.785 312.367 341.629 312.863 341.629 313.426H339.367C339.367 312.699 339.52 312.047 339.824 311.469C340.129 310.883 340.547 310.387 341.078 309.98C341.609 309.566 342.223 309.25 342.918 309.031C343.621 308.812 344.363 308.703 345.145 308.703C346.059 308.703 346.887 308.809 347.629 309.02C348.371 309.223 349.008 309.527 349.539 309.934C350.07 310.34 350.477 310.844 350.758 311.445C351.039 312.047 351.18 312.746 351.18 313.543C351.18 314.129 351.043 314.68 350.77 315.195C350.496 315.711 350.105 316.164 349.598 316.555C349.09 316.945 348.48 317.254 347.77 317.48C347.059 317.699 346.266 317.809 345.391 317.809ZM343.363 316.812H345.391C346.352 316.812 347.207 316.91 347.957 317.105C348.707 317.301 349.34 317.586 349.855 317.961C350.371 318.336 350.762 318.801 351.027 319.355C351.301 319.902 351.438 320.531 351.438 321.242C351.438 322.039 351.281 322.746 350.969 323.363C350.664 323.98 350.23 324.504 349.668 324.934C349.105 325.363 348.438 325.688 347.664 325.906C346.898 326.125 346.059 326.234 345.145 326.234C344.41 326.234 343.684 326.141 342.965 325.953C342.254 325.758 341.609 325.461 341.031 325.062C340.453 324.656 339.988 324.141 339.637 323.516C339.293 322.891 339.121 322.141 339.121 321.266H341.383C341.383 321.836 341.539 322.359 341.852 322.836C342.172 323.312 342.613 323.695 343.176 323.984C343.738 324.266 344.395 324.406 345.145 324.406C346.004 324.406 346.73 324.273 347.324 324.008C347.926 323.734 348.383 323.363 348.695 322.895C349.016 322.418 349.176 321.883 349.176 321.289C349.176 320.766 349.09 320.312 348.918 319.93C348.754 319.539 348.508 319.219 348.18 318.969C347.859 318.719 347.457 318.535 346.973 318.418C346.496 318.293 345.941 318.23 345.309 318.23H343.363V316.812ZM361.562 323.832V317.305C361.562 316.805 361.461 316.371 361.258 316.004C361.062 315.629 360.766 315.34 360.367 315.137C359.969 314.934 359.477 314.832 358.891 314.832C358.344 314.832 357.863 314.926 357.449 315.113C357.043 315.301 356.723 315.547 356.488 315.852C356.262 316.156 356.148 316.484 356.148 316.836H353.98C353.98 316.383 354.098 315.934 354.332 315.488C354.566 315.043 354.902 314.641 355.34 314.281C355.785 313.914 356.316 313.625 356.934 313.414C357.559 313.195 358.254 313.086 359.02 313.086C359.941 313.086 360.754 313.242 361.457 313.555C362.168 313.867 362.723 314.34 363.121 314.973C363.527 315.598 363.73 316.383 363.73 317.328V323.234C363.73 323.656 363.766 324.105 363.836 324.582C363.914 325.059 364.027 325.469 364.176 325.812V326H361.914C361.805 325.75 361.719 325.418 361.656 325.004C361.594 324.582 361.562 324.191 361.562 323.832ZM361.938 318.312L361.961 319.836H359.77C359.152 319.836 358.602 319.887 358.117 319.988C357.633 320.082 357.227 320.227 356.898 320.422C356.57 320.617 356.32 320.863 356.148 321.16C355.977 321.449 355.891 321.789 355.891 322.18C355.891 322.578 355.98 322.941 356.16 323.27C356.34 323.598 356.609 323.859 356.969 324.055C357.336 324.242 357.785 324.336 358.316 324.336C358.98 324.336 359.566 324.195 360.074 323.914C360.582 323.633 360.984 323.289 361.281 322.883C361.586 322.477 361.75 322.082 361.773 321.699L362.699 322.742C362.645 323.07 362.496 323.434 362.254 323.832C362.012 324.23 361.688 324.613 361.281 324.98C360.883 325.34 360.406 325.641 359.852 325.883C359.305 326.117 358.688 326.234 358 326.234C357.141 326.234 356.387 326.066 355.738 325.73C355.098 325.395 354.598 324.945 354.238 324.383C353.887 323.812 353.711 323.176 353.711 322.473C353.711 321.793 353.844 321.195 354.109 320.68C354.375 320.156 354.758 319.723 355.258 319.379C355.758 319.027 356.359 318.762 357.062 318.582C357.766 318.402 358.551 318.312 359.418 318.312H361.938ZM375.613 313.32V315.113H369.484V313.32H375.613ZM377.523 313.32V326H375.355V313.32H377.523ZM368.957 313.32H371.137L370.809 319.438C370.754 320.383 370.664 321.219 370.539 321.945C370.422 322.664 370.258 323.281 370.047 323.797C369.844 324.312 369.586 324.734 369.273 325.062C368.969 325.383 368.602 325.621 368.172 325.777C367.742 325.926 367.246 326 366.684 326H366.004V324.09L366.473 324.055C366.809 324.031 367.094 323.953 367.328 323.82C367.57 323.688 367.773 323.492 367.938 323.234C368.102 322.969 368.234 322.629 368.336 322.215C368.445 321.801 368.527 321.309 368.582 320.738C368.645 320.168 368.691 319.504 368.723 318.746L368.957 313.32ZM397.914 324.219V326H386.746V324.441L392.336 318.219C393.023 317.453 393.555 316.805 393.93 316.273C394.312 315.734 394.578 315.254 394.727 314.832C394.883 314.402 394.961 313.965 394.961 313.52C394.961 312.957 394.844 312.449 394.609 311.996C394.383 311.535 394.047 311.168 393.602 310.895C393.156 310.621 392.617 310.484 391.984 310.484C391.227 310.484 390.594 310.633 390.086 310.93C389.586 311.219 389.211 311.625 388.961 312.148C388.711 312.672 388.586 313.273 388.586 313.953H386.418C386.418 312.992 386.629 312.113 387.051 311.316C387.473 310.52 388.098 309.887 388.926 309.418C389.754 308.941 390.773 308.703 391.984 308.703C393.062 308.703 393.984 308.895 394.75 309.277C395.516 309.652 396.102 310.184 396.508 310.871C396.922 311.551 397.129 312.348 397.129 313.262C397.129 313.762 397.043 314.27 396.871 314.785C396.707 315.293 396.477 315.801 396.18 316.309C395.891 316.816 395.551 317.316 395.16 317.809C394.777 318.301 394.367 318.785 393.93 319.262L389.359 324.219H397.914Z" fill="black"/>
</svg>
