<svg width="191" height="606" viewBox="0 0 191 606" fill="none" xmlns="http://www.w3.org/2000/svg">
<g clip-path="url(#clip0_88_280)">
<rect width="190" height="176" transform="translate(0.5)" fill="white"/>
<rect width="190" height="48" transform="translate(0.5 8)" fill="white"/>
<path d="M23.6641 33.835H24.9766C24.9082 34.4639 24.7282 35.0267 24.4365 35.5234C24.1449 36.0202 23.7324 36.4144 23.1992 36.7061C22.666 36.9932 22.0007 37.1367 21.2031 37.1367C20.6198 37.1367 20.0889 37.0273 19.6104 36.8086C19.1364 36.5898 18.7285 36.2799 18.3867 35.8789C18.0449 35.4733 17.7806 34.988 17.5938 34.4229C17.4115 33.8532 17.3203 33.2197 17.3203 32.5225V31.5312C17.3203 30.834 17.4115 30.2028 17.5938 29.6377C17.7806 29.068 18.0472 28.5804 18.3936 28.1748C18.7445 27.7692 19.166 27.457 19.6582 27.2383C20.1504 27.0195 20.7041 26.9102 21.3193 26.9102C22.0713 26.9102 22.707 27.0514 23.2266 27.334C23.7461 27.6165 24.1494 28.0085 24.4365 28.5098C24.7282 29.0065 24.9082 29.583 24.9766 30.2393H23.6641C23.6003 29.7744 23.4818 29.3757 23.3086 29.043C23.1354 28.7057 22.8893 28.446 22.5703 28.2637C22.2513 28.0814 21.8343 27.9902 21.3193 27.9902C20.8773 27.9902 20.4876 28.0745 20.1504 28.2432C19.8177 28.4118 19.5374 28.651 19.3096 28.9609C19.0863 29.2708 18.9176 29.6423 18.8037 30.0752C18.6898 30.5081 18.6328 30.9889 18.6328 31.5176V32.5225C18.6328 33.0101 18.6829 33.4681 18.7832 33.8965C18.888 34.3249 19.0452 34.7008 19.2549 35.0244C19.4645 35.348 19.7311 35.6032 20.0547 35.79C20.3783 35.9723 20.7611 36.0635 21.2031 36.0635C21.7637 36.0635 22.2103 35.9746 22.543 35.7969C22.8757 35.6191 23.1263 35.3639 23.2949 35.0312C23.4681 34.6986 23.5911 34.2998 23.6641 33.835ZM34.876 27.0469V37H33.5635V28.127H28.6553V37H27.3359V27.0469H34.876ZM39.1426 34.7168L44.0439 27.0469H45.3633V37H44.0439V29.3232L39.1426 37H37.8301V27.0469H39.1426V34.7168ZM54.2715 33.835H55.584C55.5156 34.4639 55.3356 35.0267 55.0439 35.5234C54.7523 36.0202 54.3398 36.4144 53.8066 36.7061C53.2734 36.9932 52.6081 37.1367 51.8105 37.1367C51.2272 37.1367 50.6963 37.0273 50.2178 36.8086C49.7438 36.5898 49.3359 36.2799 48.9941 35.8789C48.6523 35.4733 48.388 34.988 48.2012 34.4229C48.0189 33.8532 47.9277 33.2197 47.9277 32.5225V31.5312C47.9277 30.834 48.0189 30.2028 48.2012 29.6377C48.388 29.068 48.6546 28.5804 49.001 28.1748C49.3519 27.7692 49.7734 27.457 50.2656 27.2383C50.7578 27.0195 51.3115 26.9102 51.9268 26.9102C52.6787 26.9102 53.3145 27.0514 53.834 27.334C54.3535 27.6165 54.7568 28.0085 55.0439 28.5098C55.3356 29.0065 55.5156 29.583 55.584 30.2393H54.2715C54.2077 29.7744 54.0892 29.3757 53.916 29.043C53.7428 28.7057 53.4967 28.446 53.1777 28.2637C52.8587 28.0814 52.4417 27.9902 51.9268 27.9902C51.4847 27.9902 51.0951 28.0745 50.7578 28.2432C50.4251 28.4118 50.1449 28.651 49.917 28.9609C49.6937 29.2708 49.5251 29.6423 49.4111 30.0752C49.2972 30.5081 49.2402 30.9889 49.2402 31.5176V32.5225C49.2402 33.0101 49.2904 33.4681 49.3906 33.8965C49.4954 34.3249 49.6527 34.7008 49.8623 35.0244C50.0719 35.348 50.3385 35.6032 50.6621 35.79C50.9857 35.9723 51.3685 36.0635 51.8105 36.0635C52.3711 36.0635 52.8177 35.9746 53.1504 35.7969C53.4831 35.6191 53.7337 35.3639 53.9023 35.0312C54.0755 34.6986 54.1986 34.2998 54.2715 33.835ZM65.5449 31.709V32.3379C65.5449 33.0853 65.4515 33.7552 65.2646 34.3477C65.0778 34.9401 64.8089 35.4437 64.458 35.8584C64.1071 36.2731 63.6855 36.5898 63.1934 36.8086C62.7057 37.0273 62.1589 37.1367 61.5527 37.1367C60.9648 37.1367 60.4248 37.0273 59.9326 36.8086C59.445 36.5898 59.0212 36.2731 58.6611 35.8584C58.3057 35.4437 58.0299 34.9401 57.834 34.3477C57.638 33.7552 57.54 33.0853 57.54 32.3379V31.709C57.54 30.9616 57.6357 30.2939 57.8271 29.7061C58.0231 29.1136 58.2988 28.61 58.6543 28.1953C59.0098 27.776 59.4313 27.457 59.9189 27.2383C60.4111 27.0195 60.9512 26.9102 61.5391 26.9102C62.1452 26.9102 62.6921 27.0195 63.1797 27.2383C63.6719 27.457 64.0934 27.776 64.4443 28.1953C64.7998 28.61 65.071 29.1136 65.2578 29.7061C65.4492 30.2939 65.5449 30.9616 65.5449 31.709ZM64.2393 32.3379V31.6953C64.2393 31.1029 64.1777 30.5788 64.0547 30.123C63.9362 29.6673 63.7607 29.2845 63.5283 28.9746C63.2959 28.6647 63.0111 28.43 62.6738 28.2705C62.3411 28.111 61.9629 28.0312 61.5391 28.0312C61.1289 28.0312 60.7575 28.111 60.4248 28.2705C60.0967 28.43 59.8141 28.6647 59.5771 28.9746C59.3447 29.2845 59.1647 29.6673 59.0371 30.123C58.9095 30.5788 58.8457 31.1029 58.8457 31.6953V32.3379C58.8457 32.9349 58.9095 33.4635 59.0371 33.9238C59.1647 34.3796 59.347 34.7646 59.584 35.0791C59.8255 35.389 60.1104 35.6237 60.4385 35.7832C60.7712 35.9427 61.1426 36.0225 61.5527 36.0225C61.9811 36.0225 62.3617 35.9427 62.6943 35.7832C63.027 35.6237 63.3073 35.389 63.5352 35.0791C63.7676 34.7646 63.943 34.3796 64.0615 33.9238C64.18 33.4635 64.2393 32.9349 64.2393 32.3379ZM69.4014 27.0469V37H68.082V27.0469H69.4014ZM75.5332 27.0469L71.2129 32.5225H68.875L68.6699 31.4287H70.4268L73.8994 27.0469H75.5332ZM74.207 37L70.4678 32.3516L71.2061 31.1963L75.8203 37H74.207ZM84.5381 32.2217H83.3555V31.3809H84.4902C84.9915 31.3809 85.3971 31.3102 85.707 31.1689C86.0169 31.0277 86.2425 30.8317 86.3838 30.5811C86.5251 30.3304 86.5957 30.041 86.5957 29.7129C86.5957 29.3984 86.5182 29.1113 86.3633 28.8516C86.2083 28.5872 85.9691 28.3776 85.6455 28.2227C85.3219 28.0632 84.9049 27.9834 84.3945 27.9834C84.0117 27.9834 83.6654 28.0563 83.3555 28.2021C83.0456 28.3434 82.7995 28.5417 82.6172 28.7969C82.4349 29.0475 82.3438 29.3369 82.3438 29.665H81.0244C81.0244 29.2412 81.1133 28.8607 81.291 28.5234C81.4688 28.1816 81.7126 27.8923 82.0225 27.6553C82.3324 27.4137 82.6901 27.2292 83.0957 27.1016C83.5059 26.974 83.9388 26.9102 84.3945 26.9102C84.9277 26.9102 85.4108 26.9717 85.8438 27.0947C86.2767 27.2132 86.6481 27.391 86.958 27.6279C87.2679 27.8649 87.5049 28.1589 87.6689 28.5098C87.833 28.8607 87.915 29.2686 87.915 29.7334C87.915 30.0752 87.8353 30.3965 87.6758 30.6973C87.5163 30.998 87.2884 31.2624 86.9922 31.4902C86.696 31.7181 86.3405 31.8981 85.9258 32.0303C85.5111 32.1579 85.0485 32.2217 84.5381 32.2217ZM83.3555 31.6406H84.5381C85.0986 31.6406 85.5977 31.6976 86.0352 31.8115C86.4727 31.9255 86.8418 32.0918 87.1426 32.3105C87.4434 32.5293 87.6712 32.8005 87.8262 33.124C87.9857 33.443 88.0654 33.8099 88.0654 34.2246C88.0654 34.6895 87.9743 35.1019 87.792 35.4619C87.6143 35.8219 87.3613 36.1273 87.0332 36.3779C86.7051 36.6286 86.3154 36.8177 85.8643 36.9453C85.4176 37.0729 84.9277 37.1367 84.3945 37.1367C83.9661 37.1367 83.5423 37.082 83.123 36.9727C82.7083 36.8587 82.3324 36.6855 81.9951 36.4531C81.6579 36.2161 81.3867 35.9154 81.1816 35.5508C80.9811 35.1862 80.8809 34.7487 80.8809 34.2383H82.2002C82.2002 34.571 82.2913 34.8763 82.4736 35.1543C82.6605 35.4323 82.918 35.6556 83.2461 35.8242C83.5742 35.9883 83.957 36.0703 84.3945 36.0703C84.8958 36.0703 85.3197 35.9928 85.666 35.8379C86.0169 35.6784 86.2835 35.4619 86.4658 35.1885C86.6527 34.9105 86.7461 34.5983 86.7461 34.252C86.7461 33.9466 86.696 33.6823 86.5957 33.459C86.5 33.2311 86.3564 33.0443 86.165 32.8984C85.9782 32.7526 85.7435 32.6455 85.4609 32.5771C85.1829 32.5042 84.8594 32.4678 84.4902 32.4678H83.3555V31.6406ZM97.9648 31.709V32.3379C97.9648 33.0853 97.8714 33.7552 97.6846 34.3477C97.4977 34.9401 97.2288 35.4437 96.8779 35.8584C96.527 36.2731 96.1055 36.5898 95.6133 36.8086C95.1257 37.0273 94.5788 37.1367 93.9727 37.1367C93.3848 37.1367 92.8447 37.0273 92.3525 36.8086C91.8649 36.5898 91.4411 36.2731 91.0811 35.8584C90.7256 35.4437 90.4499 34.9401 90.2539 34.3477C90.0579 33.7552 89.96 33.0853 89.96 32.3379V31.709C89.96 30.9616 90.0557 30.2939 90.2471 29.7061C90.443 29.1136 90.7188 28.61 91.0742 28.1953C91.4297 27.776 91.8512 27.457 92.3389 27.2383C92.8311 27.0195 93.3711 26.9102 93.959 26.9102C94.5651 26.9102 95.112 27.0195 95.5996 27.2383C96.0918 27.457 96.5133 27.776 96.8643 28.1953C97.2197 28.61 97.4909 29.1136 97.6777 29.7061C97.8691 30.2939 97.9648 30.9616 97.9648 31.709ZM96.6592 32.3379V31.6953C96.6592 31.1029 96.5977 30.5788 96.4746 30.123C96.3561 29.6673 96.1807 29.2845 95.9482 28.9746C95.7158 28.6647 95.431 28.43 95.0938 28.2705C94.7611 28.111 94.3828 28.0312 93.959 28.0312C93.5488 28.0312 93.1774 28.111 92.8447 28.2705C92.5166 28.43 92.234 28.6647 91.9971 28.9746C91.7646 29.2845 91.5846 29.6673 91.457 30.123C91.3294 30.5788 91.2656 31.1029 91.2656 31.6953V32.3379C91.2656 32.9349 91.3294 33.4635 91.457 33.9238C91.5846 34.3796 91.7669 34.7646 92.0039 35.0791C92.2454 35.389 92.5303 35.6237 92.8584 35.7832C93.1911 35.9427 93.5625 36.0225 93.9727 36.0225C94.401 36.0225 94.7816 35.9427 95.1143 35.7832C95.4469 35.6237 95.7272 35.389 95.9551 35.0791C96.1875 34.7646 96.363 34.3796 96.4814 33.9238C96.5999 33.4635 96.6592 32.9349 96.6592 32.3379ZM106.941 31.3262V32.3994H101.555V31.3262H106.941ZM101.76 27.0469V37H100.44V27.0469H101.76ZM108.09 27.0469V37H106.777V27.0469H108.09Z" fill="black"/>
<rect width="190" height="56" transform="translate(0.5 56)" fill="#1976D2" fill-opacity="0.15"/>
<path d="M22.5 89.0156V90H34.5V89.0156C34.5 88.1094 33.8125 87.375 32.4375 86.8125C31.0625 86.2188 29.75 85.9219 28.5 85.9219C27.25 85.9219 25.9375 86.2188 24.5625 86.8125C23.1875 87.375 22.5 88.1094 22.5 89.0156ZM30.6094 83.1094C31.2031 82.5156 31.5 81.8125 31.5 81C31.5 80.1875 31.2031 79.4844 30.6094 78.8906C30.0156 78.2969 29.3125 78 28.5 78C27.6875 78 26.9844 78.2969 26.3906 78.8906C25.7969 79.4844 25.5 80.1875 25.5 81C25.5 81.8125 25.7969 82.5156 26.3906 83.1094C26.9844 83.7031 27.6875 84 28.5 84C29.3125 84 30.0156 83.7031 30.6094 83.1094ZM19.5 77.0156C19.5 76.4531 19.6875 75.9844 20.0625 75.6094C20.4688 75.2031 20.9531 75 21.5156 75H35.4844C36.0156 75 36.4844 75.2031 36.8906 75.6094C37.2969 76.0156 37.5 76.4844 37.5 77.0156V90.9844C37.5 91.5156 37.2969 91.9844 36.8906 92.3906C36.4844 92.7969 36.0156 93 35.4844 93H21.5156C20.9531 93 20.4688 92.8125 20.0625 92.4375C19.6875 92.0312 19.5 91.5469 19.5 90.9844V77.0156Z" fill="#1976D2"/>
<path d="M77.3047 83.5391H75.9531V82.5781H77.25C77.8229 82.5781 78.2865 82.4974 78.6406 82.3359C78.9948 82.1745 79.2526 81.9505 79.4141 81.6641C79.5755 81.3776 79.6562 81.0469 79.6562 80.6719C79.6562 80.3125 79.5677 79.9844 79.3906 79.6875C79.2135 79.3854 78.9401 79.1458 78.5703 78.9688C78.2005 78.7865 77.724 78.6953 77.1406 78.6953C76.7031 78.6953 76.3073 78.7786 75.9531 78.9453C75.599 79.1068 75.3177 79.3333 75.1094 79.625C74.901 79.9115 74.7969 80.2422 74.7969 80.6172H73.2891C73.2891 80.1328 73.3906 79.6979 73.5938 79.3125C73.7969 78.9219 74.0755 78.5911 74.4297 78.3203C74.7839 78.0443 75.1927 77.8333 75.6562 77.6875C76.125 77.5417 76.6198 77.4688 77.1406 77.4688C77.75 77.4688 78.3021 77.5391 78.7969 77.6797C79.2917 77.8151 79.7161 78.0182 80.0703 78.2891C80.4245 78.5599 80.6953 78.8958 80.8828 79.2969C81.0703 79.6979 81.1641 80.1641 81.1641 80.6953C81.1641 81.0859 81.0729 81.4531 80.8906 81.7969C80.7083 82.1406 80.4479 82.4427 80.1094 82.7031C79.7708 82.9635 79.3646 83.1693 78.8906 83.3203C78.4167 83.4661 77.888 83.5391 77.3047 83.5391ZM75.9531 82.875H77.3047C77.9453 82.875 78.5156 82.9401 79.0156 83.0703C79.5156 83.2005 79.9375 83.3906 80.2812 83.6406C80.625 83.8906 80.8854 84.2005 81.0625 84.5703C81.2448 84.9349 81.3359 85.3542 81.3359 85.8281C81.3359 86.3594 81.2318 86.8307 81.0234 87.2422C80.8203 87.6536 80.5312 88.0026 80.1562 88.2891C79.7812 88.5755 79.3359 88.7917 78.8203 88.9375C78.3099 89.0833 77.75 89.1562 77.1406 89.1562C76.651 89.1562 76.1667 89.0938 75.6875 88.9688C75.2135 88.8385 74.7839 88.6406 74.3984 88.375C74.013 88.1042 73.7031 87.7604 73.4688 87.3438C73.2396 86.9271 73.125 86.4271 73.125 85.8438H74.6328C74.6328 86.224 74.737 86.5729 74.9453 86.8906C75.1589 87.2083 75.4531 87.4635 75.8281 87.6562C76.2031 87.8438 76.6406 87.9375 77.1406 87.9375C77.7135 87.9375 78.1979 87.849 78.5938 87.6719C78.9948 87.4896 79.2995 87.2422 79.5078 86.9297C79.7214 86.612 79.8281 86.2552 79.8281 85.8594C79.8281 85.5104 79.7708 85.2083 79.6562 84.9531C79.5469 84.6927 79.3828 84.4792 79.1641 84.3125C78.9505 84.1458 78.6823 84.0234 78.3594 83.9453C78.0417 83.862 77.6719 83.8203 77.25 83.8203H75.9531V82.875ZM88.5859 87.5547V83.2031C88.5859 82.8698 88.5182 82.5807 88.3828 82.3359C88.2526 82.0859 88.0547 81.8932 87.7891 81.7578C87.5234 81.6224 87.1953 81.5547 86.8047 81.5547C86.4401 81.5547 86.1198 81.6172 85.8438 81.7422C85.5729 81.8672 85.3594 82.0312 85.2031 82.2344C85.0521 82.4375 84.9766 82.6562 84.9766 82.8906H83.5312C83.5312 82.5885 83.6094 82.2891 83.7656 81.9922C83.9219 81.6953 84.1458 81.4271 84.4375 81.1875C84.7344 80.9427 85.0885 80.75 85.5 80.6094C85.9167 80.4635 86.3802 80.3906 86.8906 80.3906C87.5052 80.3906 88.0469 80.4948 88.5156 80.7031C88.9896 80.9115 89.3594 81.2266 89.625 81.6484C89.8958 82.0651 90.0312 82.5885 90.0312 83.2188V87.1562C90.0312 87.4375 90.0547 87.737 90.1016 88.0547C90.1536 88.3724 90.2292 88.6458 90.3281 88.875V89H88.8203C88.7474 88.8333 88.6901 88.612 88.6484 88.3359C88.6068 88.0547 88.5859 87.7943 88.5859 87.5547ZM88.8359 83.875L88.8516 84.8906H87.3906C86.9792 84.8906 86.612 84.9245 86.2891 84.9922C85.9661 85.0547 85.6953 85.151 85.4766 85.2812C85.2578 85.4115 85.0911 85.5755 84.9766 85.7734C84.862 85.9661 84.8047 86.1927 84.8047 86.4531C84.8047 86.7188 84.8646 86.9609 84.9844 87.1797C85.1042 87.3984 85.2839 87.5729 85.5234 87.7031C85.7682 87.8281 86.0677 87.8906 86.4219 87.8906C86.8646 87.8906 87.2552 87.7969 87.5938 87.6094C87.9323 87.4219 88.2005 87.1927 88.3984 86.9219C88.6016 86.651 88.7109 86.388 88.7266 86.1328L89.3438 86.8281C89.3073 87.0469 89.2083 87.2891 89.0469 87.5547C88.8854 87.8203 88.6693 88.0755 88.3984 88.3203C88.1328 88.5599 87.8151 88.7604 87.4453 88.9219C87.0807 89.0781 86.6693 89.1562 86.2109 89.1562C85.638 89.1562 85.1354 89.0443 84.7031 88.8203C84.276 88.5964 83.9427 88.2969 83.7031 87.9219C83.4688 87.5417 83.3516 87.1172 83.3516 86.6484C83.3516 86.1953 83.4401 85.7969 83.6172 85.4531C83.7943 85.1042 84.0495 84.8151 84.3828 84.5859C84.7161 84.3516 85.1172 84.1745 85.5859 84.0547C86.0547 83.9349 86.5781 83.875 87.1562 83.875H88.8359ZM98.4531 80.5469V81.7422H94.3672V80.5469H98.4531ZM99.7266 80.5469V89H98.2812V80.5469H99.7266ZM94.0156 80.5469H95.4688L95.25 84.625C95.2135 85.2552 95.1536 85.8125 95.0703 86.2969C94.9922 86.776 94.8828 87.1875 94.7422 87.5312C94.6068 87.875 94.4349 88.1562 94.2266 88.375C94.0234 88.5885 93.7786 88.7474 93.4922 88.8516C93.2057 88.9505 92.875 89 92.5 89H92.0469V87.7266L92.3594 87.7031C92.5833 87.6875 92.7734 87.6354 92.9297 87.5469C93.0911 87.4583 93.2266 87.3281 93.3359 87.1562C93.4453 86.9792 93.5339 86.7526 93.6016 86.4766C93.6745 86.2005 93.7292 85.8724 93.7656 85.4922C93.8073 85.112 93.8385 84.6693 93.8594 84.1641L94.0156 80.5469ZM111.617 77.5625V89H110.172V79.3672L107.258 80.4297V79.125L111.391 77.5625H111.617Z" fill="#1976D2"/>
<path d="M22.5 145.016V146H34.5V145.016C34.5 144.109 33.8125 143.375 32.4375 142.812C31.0625 142.219 29.75 141.922 28.5 141.922C27.25 141.922 25.9375 142.219 24.5625 142.812C23.1875 143.375 22.5 144.109 22.5 145.016ZM30.6094 139.109C31.2031 138.516 31.5 137.812 31.5 137C31.5 136.188 31.2031 135.484 30.6094 134.891C30.0156 134.297 29.3125 134 28.5 134C27.6875 134 26.9844 134.297 26.3906 134.891C25.7969 135.484 25.5 136.188 25.5 137C25.5 137.812 25.7969 138.516 26.3906 139.109C26.9844 139.703 27.6875 140 28.5 140C29.3125 140 30.0156 139.703 30.6094 139.109ZM19.5 133.016C19.5 132.453 19.6875 131.984 20.0625 131.609C20.4688 131.203 20.9531 131 21.5156 131H35.4844C36.0156 131 36.4844 131.203 36.8906 131.609C37.2969 132.016 37.5 132.484 37.5 133.016V146.984C37.5 147.516 37.2969 147.984 36.8906 148.391C36.4844 148.797 36.0156 149 35.4844 149H21.5156C20.9531 149 20.4688 148.812 20.0625 148.438C19.6875 148.031 19.5 147.547 19.5 146.984V133.016Z" fill="black" fill-opacity="0.54"/>
<path d="M77.3047 139.539H75.9531V138.578H77.25C77.8229 138.578 78.2865 138.497 78.6406 138.336C78.9948 138.174 79.2526 137.951 79.4141 137.664C79.5755 137.378 79.6562 137.047 79.6562 136.672C79.6562 136.312 79.5677 135.984 79.3906 135.688C79.2135 135.385 78.9401 135.146 78.5703 134.969C78.2005 134.786 77.724 134.695 77.1406 134.695C76.7031 134.695 76.3073 134.779 75.9531 134.945C75.599 135.107 75.3177 135.333 75.1094 135.625C74.901 135.911 74.7969 136.242 74.7969 136.617H73.2891C73.2891 136.133 73.3906 135.698 73.5938 135.312C73.7969 134.922 74.0755 134.591 74.4297 134.32C74.7839 134.044 75.1927 133.833 75.6562 133.688C76.125 133.542 76.6198 133.469 77.1406 133.469C77.75 133.469 78.3021 133.539 78.7969 133.68C79.2917 133.815 79.7161 134.018 80.0703 134.289C80.4245 134.56 80.6953 134.896 80.8828 135.297C81.0703 135.698 81.1641 136.164 81.1641 136.695C81.1641 137.086 81.0729 137.453 80.8906 137.797C80.7083 138.141 80.4479 138.443 80.1094 138.703C79.7708 138.964 79.3646 139.169 78.8906 139.32C78.4167 139.466 77.888 139.539 77.3047 139.539ZM75.9531 138.875H77.3047C77.9453 138.875 78.5156 138.94 79.0156 139.07C79.5156 139.201 79.9375 139.391 80.2812 139.641C80.625 139.891 80.8854 140.201 81.0625 140.57C81.2448 140.935 81.3359 141.354 81.3359 141.828C81.3359 142.359 81.2318 142.831 81.0234 143.242C80.8203 143.654 80.5312 144.003 80.1562 144.289C79.7812 144.576 79.3359 144.792 78.8203 144.938C78.3099 145.083 77.75 145.156 77.1406 145.156C76.651 145.156 76.1667 145.094 75.6875 144.969C75.2135 144.839 74.7839 144.641 74.3984 144.375C74.013 144.104 73.7031 143.76 73.4688 143.344C73.2396 142.927 73.125 142.427 73.125 141.844H74.6328C74.6328 142.224 74.737 142.573 74.9453 142.891C75.1589 143.208 75.4531 143.464 75.8281 143.656C76.2031 143.844 76.6406 143.938 77.1406 143.938C77.7135 143.938 78.1979 143.849 78.5938 143.672C78.9948 143.49 79.2995 143.242 79.5078 142.93C79.7214 142.612 79.8281 142.255 79.8281 141.859C79.8281 141.51 79.7708 141.208 79.6562 140.953C79.5469 140.693 79.3828 140.479 79.1641 140.312C78.9505 140.146 78.6823 140.023 78.3594 139.945C78.0417 139.862 77.6719 139.82 77.25 139.82H75.9531V138.875ZM88.5859 143.555V139.203C88.5859 138.87 88.5182 138.581 88.3828 138.336C88.2526 138.086 88.0547 137.893 87.7891 137.758C87.5234 137.622 87.1953 137.555 86.8047 137.555C86.4401 137.555 86.1198 137.617 85.8438 137.742C85.5729 137.867 85.3594 138.031 85.2031 138.234C85.0521 138.438 84.9766 138.656 84.9766 138.891H83.5312C83.5312 138.589 83.6094 138.289 83.7656 137.992C83.9219 137.695 84.1458 137.427 84.4375 137.188C84.7344 136.943 85.0885 136.75 85.5 136.609C85.9167 136.464 86.3802 136.391 86.8906 136.391C87.5052 136.391 88.0469 136.495 88.5156 136.703C88.9896 136.911 89.3594 137.227 89.625 137.648C89.8958 138.065 90.0312 138.589 90.0312 139.219V143.156C90.0312 143.438 90.0547 143.737 90.1016 144.055C90.1536 144.372 90.2292 144.646 90.3281 144.875V145H88.8203C88.7474 144.833 88.6901 144.612 88.6484 144.336C88.6068 144.055 88.5859 143.794 88.5859 143.555ZM88.8359 139.875L88.8516 140.891H87.3906C86.9792 140.891 86.612 140.924 86.2891 140.992C85.9661 141.055 85.6953 141.151 85.4766 141.281C85.2578 141.411 85.0911 141.576 84.9766 141.773C84.862 141.966 84.8047 142.193 84.8047 142.453C84.8047 142.719 84.8646 142.961 84.9844 143.18C85.1042 143.398 85.2839 143.573 85.5234 143.703C85.7682 143.828 86.0677 143.891 86.4219 143.891C86.8646 143.891 87.2552 143.797 87.5938 143.609C87.9323 143.422 88.2005 143.193 88.3984 142.922C88.6016 142.651 88.7109 142.388 88.7266 142.133L89.3438 142.828C89.3073 143.047 89.2083 143.289 89.0469 143.555C88.8854 143.82 88.6693 144.076 88.3984 144.32C88.1328 144.56 87.8151 144.76 87.4453 144.922C87.0807 145.078 86.6693 145.156 86.2109 145.156C85.638 145.156 85.1354 145.044 84.7031 144.82C84.276 144.596 83.9427 144.297 83.7031 143.922C83.4688 143.542 83.3516 143.117 83.3516 142.648C83.3516 142.195 83.4401 141.797 83.6172 141.453C83.7943 141.104 84.0495 140.815 84.3828 140.586C84.7161 140.352 85.1172 140.174 85.5859 140.055C86.0547 139.935 86.5781 139.875 87.1562 139.875H88.8359ZM98.4531 136.547V137.742H94.3672V136.547H98.4531ZM99.7266 136.547V145H98.2812V136.547H99.7266ZM94.0156 136.547H95.4688L95.25 140.625C95.2135 141.255 95.1536 141.812 95.0703 142.297C94.9922 142.776 94.8828 143.188 94.7422 143.531C94.6068 143.875 94.4349 144.156 94.2266 144.375C94.0234 144.589 93.7786 144.747 93.4922 144.852C93.2057 144.951 92.875 145 92.5 145H92.0469V143.727L92.3594 143.703C92.5833 143.688 92.7734 143.635 92.9297 143.547C93.0911 143.458 93.2266 143.328 93.3359 143.156C93.4453 142.979 93.5339 142.753 93.6016 142.477C93.6745 142.201 93.7292 141.872 93.7656 141.492C93.8073 141.112 93.8385 140.669 93.8594 140.164L94.0156 136.547ZM114.32 143.812V145H106.875V143.961L110.602 139.812C111.06 139.302 111.414 138.87 111.664 138.516C111.919 138.156 112.096 137.836 112.195 137.555C112.299 137.268 112.352 136.977 112.352 136.68C112.352 136.305 112.273 135.966 112.117 135.664C111.966 135.357 111.742 135.112 111.445 134.93C111.148 134.747 110.789 134.656 110.367 134.656C109.862 134.656 109.44 134.755 109.102 134.953C108.768 135.146 108.518 135.417 108.352 135.766C108.185 136.115 108.102 136.516 108.102 136.969H106.656C106.656 136.328 106.797 135.742 107.078 135.211C107.359 134.68 107.776 134.258 108.328 133.945C108.88 133.628 109.56 133.469 110.367 133.469C111.086 133.469 111.701 133.596 112.211 133.852C112.721 134.102 113.112 134.456 113.383 134.914C113.659 135.367 113.797 135.898 113.797 136.508C113.797 136.841 113.74 137.18 113.625 137.523C113.516 137.862 113.362 138.201 113.164 138.539C112.971 138.878 112.745 139.211 112.484 139.539C112.229 139.867 111.956 140.19 111.664 140.508L108.617 143.812H114.32Z" fill="black" fill-opacity="0.87"/>
</g>
<defs>
<clipPath id="clip0_88_280">
<rect width="190" height="176" fill="white" transform="translate(0.5)"/>
</clipPath>
</defs>
</svg>
